HIERARCHY
ROOT Hips
{
	OFFSET 0.00000 0.00000 0.00000
	CHANNELS 6 Xposition Yposition Zposition Yrotation Zrotation Xrotation 
	JOINT Lumbar
	{
		OFFSET 0 0 0
		CHANNELS 3 Zrotation Xrotation Yrotation
		JOINT Neck
		{
			OFFSET 0.00 0.2701 0.00
			CHANNELS 3 Zrotation Xrotation Yrotation
			End Site
			{
				OFFSET 0.00 0.1379 0.00
			}
		}
		JOINT RightShoulder
		{
			OFFSET 0.0119 0.2289 0.1181
			CHANNELS 3 Zrotation Xrotation Yrotation
			JOINT RightElbow
			{
				OFFSET 0.00 -0.1475 0.00
				CHANNELS 2 Zrotation Yrotation
				JOINT RightWrist
				{
					OFFSET 0.00 -0.1605 0.00
					CHANNELS 2 Zrotation Xrotation
					End Site
					{
						OFFSET 0.0040 -0.1068 0.0006
					}
				}
			}
		}
		JOINT LeftShoulder
		{
			OFFSET 0.0119 0.2289 -0.1181
			CHANNELS 3 Zrotation Xrotation Yrotation
			JOINT LeftElbow
			{
				OFFSET 0.00 -0.1475 0.00
				CHANNELS 2 Zrotation Yrotation
				JOINT LeftWrist
				{
					OFFSET 0.00 -0.1605 0.00
					CHANNELS 2 Zrotation Xrotation
					End Site
					{
						OFFSET 0.0040 -0.1068 -0.0006
					}
				}
			}
		}
	}
	JOINT RightHip
	{
		OFFSET 0.0316 -0.0424 0.0458
		CHANNELS 3 Zrotation Xrotation Yrotation
		JOINT RightKnee
		{
			OFFSET 0.00 -0.2438 0.00
			CHANNELS 1 Zrotation
			JOINT RightAnkle
			{
				OFFSET 0.00 -0.2449 0.00
				CHANNELS 3 Zrotation Xrotation Yrotation
				End Site
				{
					OFFSET 0.1237 -0.0542 0.0051
				}
			}
		}
	}
	JOINT LeftHip
	{
		OFFSET 0.0316 -0.0424 -0.0458
		CHANNELS 3 Zrotation Xrotation Yrotation
		JOINT LeftKnee
		{
			OFFSET 0.00 -0.2438 0.00
			CHANNELS 1 Zrotation
			JOINT LeftAnkle
			{
				OFFSET 0.00 -0.2449 0.00
				CHANNELS 3 Zrotation Xrotation Yrotation
				End Site
				{
					OFFSET 0.1237 -0.0542 -0.0051
				}
			}
		}
	}
}
MOTION
Frames: 18
Frame Time: 0.02
0.07604 -0.35631 -0.28249 -34.07195 -81.64872 -65.62067 -0.14053 7.64296 4.30368 38.1098 -9.63061 -2.11994 106.64968 6.1661 41.3304 115.67699 133.92465 -72.86894 -12.04953 113.38038 -3.5824 -38.14298 114.2109 -116.18836 -53.68448 6.72142 124.85893 -16.39308 26.96954 -147.07825 22.26393 33.09735 12.99839 119.08875 10.8283 -17.16986 -147.07826 22.28417 -33.10565 -12.99566
0.07678 -0.35552 -0.28359 -36.32983 -81.83066 -67.64029 0.18064 7.59519 4.27974 37.98637 -9.57477 -2.11994 106.79319 6.15525 41.89881 114.89074 130.91226 -69.43515 -11.11817 113.42566 -3.49235 -38.70173 113.81096 -115.76245 -53.10748 6.57521 124.91972 -16.28264 26.41488 -147.07825 22.26733 33.10007 12.99946 119.224 10.54679 -16.55401 -147.07826 22.28422 -33.10563 -12.99514
0.07724 -0.35509 -0.28441 -38.6272 -82.00737 -69.64071 0.6644 7.4775 4.45801 38.03255 -9.49296 -2.11994 106.91819 6.00176 42.44487 113.79646 127.06137 -65.03621 -9.94669 113.40554 -3.61061 -39.00985 113.32572 -115.80795 -53.45313 6.63141 125.03232 -16.22974 25.92794 -147.07825 22.27299 33.10461 13.00125 119.34517 10.41447 -15.9804 -147.07826 22.28452 -33.10626 -12.9951
0.0778 -0.35454 -0.28533 -40.92327 -82.18856 -71.66639 1.07874 7.38966 4.53 38.00762 -9.4232 -2.11994 107.05138 5.92122 42.98348 112.8565 123.69011 -61.19718 -8.91524 113.42029 -3.62603 -39.42601 112.86101 -115.61636 -53.33651 6.58711 125.12171 -16.16424 25.40833 -147.07826 22.27743 33.10817 13.00265 119.46667 10.21435 -15.37708 -147.07826 22.28472 -33.10661 -12.99491
0.07849 -0.3538 -0.28638 -43.16179 -82.36031 -73.63302 1.48098 7.3101 4.65394 37.95425 -9.3486 -2.11994 107.1772 5.80387 43.59099 111.84905 119.87055 -56.79591 -7.74133 113.40942 -3.657 -39.87392 112.46193 -115.47637 -53.31885 6.56157 125.2089 -16.04547 24.89787 -147.07826 22.28263 33.11234 13.00429 119.60872 10.01196 -14.81221 -147.07826 22.28489 -33.10685 -12.99446
0.07885 -0.35354 -0.28709 -45.50236 -82.54967 -75.69241 1.94093 7.19753 4.72197 37.99805 -9.27941 -2.11994 107.31655 5.72998 44.05117 110.91384 116.80293 -53.3649 -6.81353 113.43757 -3.71332 -40.19308 111.91264 -115.36605 -53.35922 6.55384 125.31015 -16.04911 24.38282 -147.07826 22.2868 33.11569 13.00561 119.70424 9.84881 -14.17899 -147.07826 22.28516 -33.10748 -12.99464
0.07838 -0.35455 -0.28694 -48.39382 -82.80162 -78.28195 2.56416 6.99959 4.57501 38.31418 -9.23072 -2.11994 107.50619 5.81437 44.11737 110.22687 115.95255 -52.73158 -6.60028 113.59365 -3.77606 -40.22291 110.94024 -115.12066 -53.16336 6.51739 125.47688 -16.38555 23.85419 -147.07827 22.28754 33.11626 13.00582 119.70334 9.7803 -13.3544 -147.07826 22.28567 -33.10912 -12.99655
0.0776 -0.35603 -0.28647 -51.33886 -83.06925 -80.91958 3.23165 6.77259 4.36798 38.71548 -9.18884 -2.11994 107.71031 5.94702 44.03566 109.62861 115.90103 -53.13141 -6.64769 113.79143 -3.86162 -40.13008 109.82649 -114.91033 -53.03108 6.49848 125.64972 -16.84123 23.31647 -147.07826 22.28719 33.11594 13.00568 119.65189 9.74299 -12.45952 -147.07826 22.28627 -33.11111 -12.99905
0.07696 -0.35726 -0.28617 -54.0753 -83.3218 -83.35762 3.84942 6.56645 4.19685 39.04817 -9.14516 -2.11994 107.903 6.05597 44.01753 109.00817 115.53298 -53.14649 -6.59427 113.9675 -3.94809 -40.08913 108.79762 -114.75902 -52.99684 6.49327 125.79405 -17.23584 22.77176 -147.07827 22.28737 33.11606 13.00572 119.60585 9.6764 -11.5921 -147.07826 22.28681 -33.11289 -13.00121
0.07632 -0.35861 -0.28577 -57.58068 -83.6082 -86.53548 4.59656 6.32648 3.99632 39.51018 -9.09593 -2.11994 108.11336 6.16803 44.01341 108.30136 114.9494 -52.78675 -6.46266 114.15136 -3.99557 -40.05541 107.67769 -114.31774 -52.47579 6.40665 126.04693 -17.66095 22.27332 -147.07827 22.28746 33.11609 13.00573 119.63315 9.6766 -10.74306 -147.07827 22.28742 -33.1149 -13.00369
0.07559 -0.35984 -0.28549 -59.50936 -83.82728 -88.19621 5.0843 6.14982 3.84016 39.7243 -9.05913 -2.11994 108.29311 6.28612 43.94591 107.79828 115.00217 -53.44387 -6.55296 114.33166 -4.1249 -39.98134 106.71599 -114.46934 -52.9493 6.48704 126.07681 -18.05086 21.67926 -147.07827 22.28746 33.11606 13.0057 119.49611 9.5458 -9.84092 -147.07827 22.28791 -33.1165 -13.00565
0.07471 -0.36056 -0.28564 -56.96098 -83.86188 -85.55063 4.82937 6.16527 3.82026 39.20405 -9.06483 -2.11994 108.36448 6.41688 43.73438 107.84792 116.73529 -56.8477 -7.24575 114.47698 -4.49256 -39.821 106.21769 -116.3621 -56.34374 7.05913 125.46906 -18.30785 20.79144 -147.07827 22.28752 33.11609 13.0057 118.9152 9.02301 -8.78955 -147.07827 22.28801 -33.11682 -13.00603
0.07375 -0.36114 -0.28591 -52.8439 -83.82725 -81.39592 4.31388 6.24384 3.84607 38.43662 -9.08122 -2.11994 108.40868 6.55132 43.4652 108.09837 119.06245 -61.206 -8.14424 114.62088 -4.93734 -39.62605 105.88502 -118.82559 -60.69433 7.79092 124.64003 -18.52656 19.81386 -147.07827 22.28751 33.11606 13.00568 118.1707 8.3712 -7.69112 -147.07827 22.28798 -33.1167 -13.00587
0.0728 -0.36182 -0.28609 -49.51772 -83.82089 -78.00187 3.92714 6.28723 3.85079 37.79973 -9.08631 -2.11994 108.47849 6.67971 43.22609 108.25129 121.04538 -65.00976 -8.91456 114.77502 -5.33422 -39.45188 105.48291 -120.95352 -64.48134 8.42619 123.92563 -18.76633 18.89736 -147.07827 22.28751 33.11603 13.00565 117.50344 7.79207 -6.62644 -147.07827 22.28801 -33.1168 -13.00597
0.07193 -0.36235 -0.28638 -45.86619 -83.82852 -74.29542 3.49865 6.35712 3.85563 37.0864 -9.11846 -2.11994 108.49191 6.82821 42.96583 108.43561 123.37307 -69.3688 -9.8398 114.88822 -5.78679 -39.25354 105.05312 -123.41056 -68.82675 9.16455 123.15289 -18.99338 17.8928 -147.07827 22.28756 33.11609 13.00567 116.82422 7.15322 -5.5053 -147.07827 22.28803 -33.11686 -13.00603
0.07089 -0.36317 -0.2865 -42.51652 -83.7904 -70.87832 3.09433 6.38704 3.87091 36.47576 -9.09716 -2.11994 108.61726 6.935 42.73741 108.59854 125.10857 -72.77212 -10.48846 115.08811 -6.1407 -39.09695 104.71978 -125.30966 -72.22171 9.72427 122.44802 -19.2381 17.05311 -147.07826 22.28752 33.11597 13.0056 116.12914 6.60969 -4.49383 -147.07827 22.28803 -33.11688 -13.00603
0.06938 -0.36479 -0.28612 -40.40502 -83.64229 -68.64846 2.82275 6.29288 3.9117 36.17931 -8.92194 -2.11994 109.04737 6.92681 42.61559 108.67651 125.10827 -73.41644 -10.31841 115.50643 -6.20941 -39.08253 104.63478 -125.59811 -72.88244 9.76665 121.993 -19.52571 16.66881 -147.07826 22.28719 33.11532 13.00522 115.45259 6.34406 -3.77765 -147.07827 22.28803 -33.11685 -13.006
0.0677 -0.36671 -0.28557 -38.64681 -83.45048 -66.75782 2.5839 6.15638 3.96012 35.9993 -8.69354 -2.11994 109.59205 6.87643 42.52773 108.7221 124.48335 -73.04725 -9.86367 116.01459 -6.17545 -39.10864 104.63841 -125.29701 -72.53774 9.62212 121.61217 -19.83535 16.45812 -147.07826 22.28678 33.11451 13.00475 114.76179 6.18209 -3.17778 -147.07827 22.28801 -33.11679 -13.00592
